ISO-10303-21;
HEADER;
/* Generated by software containing ST-Developer
 * from STEP Tools, Inc. (www.steptools.com) 
 */

FILE_DESCRIPTION(
/* description */ (''),
/* implementation_level */ '2;1');

FILE_NAME(
/* name */ 'Bottom-Plate.step',
/* time_stamp */ '2026-07-05T15:42:13+05:30',
/* author */ (''),
/* organization */ (''),
/* preprocessor_version */ 'ST-DEVELOPER v20.1',
/* originating_system */ 'Autodesk Translation Framework v15.8.0.0',
/* authorisation */ '');

FILE_SCHEMA (('AUTOMOTIVE_DESIGN { 1 0 10303 214 3 1 1 }'));
ENDSEC;

DATA;
#10=MECHANICAL_DESIGN_GEOMETRIC_PRESENTATION_REPRESENTATION('',(#13),#646);
#11=SHAPE_REPRESENTATION_RELATIONSHIP('SRR','None',#653,#12);
#12=ADVANCED_BREP_SHAPE_REPRESENTATION('',(#14),#645);
#13=STYLED_ITEM('',(#663),#14);
#14=MANIFOLD_SOLID_BREP('Body1',#386);
#15=FACE_BOUND('',#83,.T.);
#16=FACE_BOUND('',#84,.T.);
#17=FACE_BOUND('',#85,.T.);
#18=FACE_BOUND('',#86,.T.);
#19=FACE_BOUND('',#87,.T.);
#20=FACE_BOUND('',#89,.T.);
#21=FACE_BOUND('',#90,.T.);
#22=FACE_BOUND('',#91,.T.);
#23=FACE_BOUND('',#92,.T.);
#24=FACE_BOUND('',#93,.T.);
#25=CIRCLE('',#404,1.4);
#26=CIRCLE('',#405,1.4);
#27=CIRCLE('',#410,1.4);
#28=CIRCLE('',#411,1.4);
#29=CIRCLE('',#413,1.4);
#30=CIRCLE('',#414,1.4);
#31=CIRCLE('',#416,4.);
#32=CIRCLE('',#417,4.);
#33=CIRCLE('',#420,4.00000000000001);
#34=CIRCLE('',#421,4.00000000000001);
#35=CIRCLE('',#424,3.99999999999999);
#36=CIRCLE('',#425,3.99999999999999);
#37=CIRCLE('',#428,4.);
#38=CIRCLE('',#429,4.);
#39=CYLINDRICAL_SURFACE('',#403,1.4);
#40=CYLINDRICAL_SURFACE('',#409,1.4);
#41=CYLINDRICAL_SURFACE('',#412,1.4);
#42=CYLINDRICAL_SURFACE('',#415,4.);
#43=CYLINDRICAL_SURFACE('',#419,4.00000000000001);
#44=CYLINDRICAL_SURFACE('',#423,3.99999999999999);
#45=CYLINDRICAL_SURFACE('',#427,4.);
#46=FACE_OUTER_BOUND('',#65,.T.);
#47=FACE_OUTER_BOUND('',#66,.T.);
#48=FACE_OUTER_BOUND('',#67,.T.);
#49=FACE_OUTER_BOUND('',#68,.T.);
#50=FACE_OUTER_BOUND('',#69,.T.);
#51=FACE_OUTER_BOUND('',#70,.T.);
#52=FACE_OUTER_BOUND('',#71,.T.);
#53=FACE_OUTER_BOUND('',#72,.T.);
#54=FACE_OUTER_BOUND('',#73,.T.);
#55=FACE_OUTER_BOUND('',#74,.T.);
#56=FACE_OUTER_BOUND('',#75,.T.);
#57=FACE_OUTER_BOUND('',#76,.T.);
#58=FACE_OUTER_BOUND('',#77,.T.);
#59=FACE_OUTER_BOUND('',#78,.T.);
#60=FACE_OUTER_BOUND('',#79,.T.);
#61=FACE_OUTER_BOUND('',#80,.T.);
#62=FACE_OUTER_BOUND('',#81,.T.);
#63=FACE_OUTER_BOUND('',#82,.T.);
#64=FACE_OUTER_BOUND('',#88,.T.);
#65=EDGE_LOOP('',(#253,#254,#255,#256));
#66=EDGE_LOOP('',(#257,#258,#259,#260));
#67=EDGE_LOOP('',(#261,#262,#263,#264));
#68=EDGE_LOOP('',(#265,#266,#267,#268));
#69=EDGE_LOOP('',(#269,#270,#271,#272));
#70=EDGE_LOOP('',(#273,#274,#275,#276));
#71=EDGE_LOOP('',(#277,#278,#279,#280));
#72=EDGE_LOOP('',(#281,#282,#283,#284));
#73=EDGE_LOOP('',(#285,#286,#287,#288));
#74=EDGE_LOOP('',(#289,#290,#291,#292));
#75=EDGE_LOOP('',(#293,#294,#295,#296));
#76=EDGE_LOOP('',(#297,#298,#299,#300));
#77=EDGE_LOOP('',(#301,#302,#303,#304));
#78=EDGE_LOOP('',(#305,#306,#307,#308));
#79=EDGE_LOOP('',(#309,#310,#311,#312));
#80=EDGE_LOOP('',(#313,#314,#315,#316));
#81=EDGE_LOOP('',(#317,#318,#319,#320));
#82=EDGE_LOOP('',(#321,#322,#323,#324,#325,#326,#327,#328));
#83=EDGE_LOOP('',(#329));
#84=EDGE_LOOP('',(#330));
#85=EDGE_LOOP('',(#331,#332,#333));
#86=EDGE_LOOP('',(#334));
#87=EDGE_LOOP('',(#335,#336,#337));
#88=EDGE_LOOP('',(#338,#339,#340,#341,#342,#343,#344,#345));
#89=EDGE_LOOP('',(#346));
#90=EDGE_LOOP('',(#347));
#91=EDGE_LOOP('',(#348,#349,#350));
#92=EDGE_LOOP('',(#351));
#93=EDGE_LOOP('',(#352,#353,#354));
#94=LINE('',#542,#131);
#95=LINE('',#544,#132);
#96=LINE('',#546,#133);
#97=LINE('',#547,#134);
#98=LINE('',#550,#135);
#99=LINE('',#552,#136);
#100=LINE('',#553,#137);
#101=LINE('',#555,#138);
#102=LINE('',#556,#139);
#103=LINE('',#561,#140);
#104=LINE('',#566,#141);
#105=LINE('',#568,#142);
#106=LINE('',#570,#143);
#107=LINE('',#571,#144);
#108=LINE('',#574,#145);
#109=LINE('',#576,#146);
#110=LINE('',#577,#147);
#111=LINE('',#579,#148);
#112=LINE('',#580,#149);
#113=LINE('',#585,#150);
#114=LINE('',#591,#151);
#115=LINE('',#598,#152);
#116=LINE('',#601,#153);
#117=LINE('',#604,#154);
#118=LINE('',#606,#155);
#119=LINE('',#607,#156);
#120=LINE('',#613,#157);
#121=LINE('',#616,#158);
#122=LINE('',#618,#159);
#123=LINE('',#619,#160);
#124=LINE('',#625,#161);
#125=LINE('',#628,#162);
#126=LINE('',#630,#163);
#127=LINE('',#631,#164);
#128=LINE('',#637,#165);
#129=LINE('',#639,#166);
#130=LINE('',#640,#167);
#131=VECTOR('',#437,10.);
#132=VECTOR('',#438,10.);
#133=VECTOR('',#439,10.);
#134=VECTOR('',#440,10.);
#135=VECTOR('',#443,10.);
#136=VECTOR('',#444,10.);
#137=VECTOR('',#445,10.);
#138=VECTOR('',#448,10.);
#139=VECTOR('',#449,10.);
#140=VECTOR('',#454,1.4);
#141=VECTOR('',#459,10.);
#142=VECTOR('',#460,10.);
#143=VECTOR('',#461,10.);
#144=VECTOR('',#462,10.);
#145=VECTOR('',#465,10.);
#146=VECTOR('',#466,10.);
#147=VECTOR('',#467,10.);
#148=VECTOR('',#470,10.);
#149=VECTOR('',#471,10.);
#150=VECTOR('',#476,1.4);
#151=VECTOR('',#483,1.4);
#152=VECTOR('',#490,10.);
#153=VECTOR('',#493,10.);
#154=VECTOR('',#496,10.);
#155=VECTOR('',#497,10.);
#156=VECTOR('',#498,10.);
#157=VECTOR('',#505,10.);
#158=VECTOR('',#508,10.);
#159=VECTOR('',#509,10.);
#160=VECTOR('',#510,10.);
#161=VECTOR('',#517,10.);
#162=VECTOR('',#520,10.);
#163=VECTOR('',#521,10.);
#164=VECTOR('',#522,10.);
#165=VECTOR('',#529,10.);
#166=VECTOR('',#532,10.);
#167=VECTOR('',#533,10.);
#168=VERTEX_POINT('',#540);
#169=VERTEX_POINT('',#541);
#170=VERTEX_POINT('',#543);
#171=VERTEX_POINT('',#545);
#172=VERTEX_POINT('',#549);
#173=VERTEX_POINT('',#551);
#174=VERTEX_POINT('',#558);
#175=VERTEX_POINT('',#560);
#176=VERTEX_POINT('',#564);
#177=VERTEX_POINT('',#565);
#178=VERTEX_POINT('',#567);
#179=VERTEX_POINT('',#569);
#180=VERTEX_POINT('',#573);
#181=VERTEX_POINT('',#575);
#182=VERTEX_POINT('',#582);
#183=VERTEX_POINT('',#584);
#184=VERTEX_POINT('',#588);
#185=VERTEX_POINT('',#590);
#186=VERTEX_POINT('',#594);
#187=VERTEX_POINT('',#595);
#188=VERTEX_POINT('',#597);
#189=VERTEX_POINT('',#599);
#190=VERTEX_POINT('',#603);
#191=VERTEX_POINT('',#605);
#192=VERTEX_POINT('',#609);
#193=VERTEX_POINT('',#611);
#194=VERTEX_POINT('',#615);
#195=VERTEX_POINT('',#617);
#196=VERTEX_POINT('',#621);
#197=VERTEX_POINT('',#623);
#198=VERTEX_POINT('',#627);
#199=VERTEX_POINT('',#629);
#200=VERTEX_POINT('',#633);
#201=VERTEX_POINT('',#635);
#202=EDGE_CURVE('',#168,#169,#94,.T.);
#203=EDGE_CURVE('',#169,#170,#95,.T.);
#204=EDGE_CURVE('',#171,#170,#96,.T.);
#205=EDGE_CURVE('',#168,#171,#97,.T.);
#206=EDGE_CURVE('',#172,#168,#98,.T.);
#207=EDGE_CURVE('',#173,#171,#99,.T.);
#208=EDGE_CURVE('',#172,#173,#100,.T.);
#209=EDGE_CURVE('',#169,#172,#101,.T.);
#210=EDGE_CURVE('',#170,#173,#102,.T.);
#211=EDGE_CURVE('',#174,#174,#25,.T.);
#212=EDGE_CURVE('',#174,#175,#103,.T.);
#213=EDGE_CURVE('',#175,#175,#26,.T.);
#214=EDGE_CURVE('',#176,#177,#104,.T.);
#215=EDGE_CURVE('',#177,#178,#105,.T.);
#216=EDGE_CURVE('',#179,#178,#106,.T.);
#217=EDGE_CURVE('',#176,#179,#107,.T.);
#218=EDGE_CURVE('',#180,#176,#108,.T.);
#219=EDGE_CURVE('',#181,#179,#109,.T.);
#220=EDGE_CURVE('',#180,#181,#110,.T.);
#221=EDGE_CURVE('',#177,#180,#111,.T.);
#222=EDGE_CURVE('',#178,#181,#112,.T.);
#223=EDGE_CURVE('',#182,#182,#27,.T.);
#224=EDGE_CURVE('',#182,#183,#113,.T.);
#225=EDGE_CURVE('',#183,#183,#28,.T.);
#226=EDGE_CURVE('',#184,#184,#29,.T.);
#227=EDGE_CURVE('',#184,#185,#114,.T.);
#228=EDGE_CURVE('',#185,#185,#30,.T.);
#229=EDGE_CURVE('',#186,#187,#31,.T.);
#230=EDGE_CURVE('',#187,#188,#115,.T.);
#231=EDGE_CURVE('',#189,#188,#32,.T.);
#232=EDGE_CURVE('',#186,#189,#116,.T.);
#233=EDGE_CURVE('',#190,#186,#117,.T.);
#234=EDGE_CURVE('',#191,#189,#118,.T.);
#235=EDGE_CURVE('',#190,#191,#119,.T.);
#236=EDGE_CURVE('',#192,#190,#33,.T.);
#237=EDGE_CURVE('',#193,#191,#34,.T.);
#238=EDGE_CURVE('',#192,#193,#120,.T.);
#239=EDGE_CURVE('',#194,#192,#121,.T.);
#240=EDGE_CURVE('',#195,#193,#122,.T.);
#241=EDGE_CURVE('',#194,#195,#123,.T.);
#242=EDGE_CURVE('',#196,#194,#35,.T.);
#243=EDGE_CURVE('',#197,#195,#36,.T.);
#244=EDGE_CURVE('',#196,#197,#124,.T.);
#245=EDGE_CURVE('',#198,#196,#125,.T.);
#246=EDGE_CURVE('',#199,#197,#126,.T.);
#247=EDGE_CURVE('',#198,#199,#127,.T.);
#248=EDGE_CURVE('',#200,#198,#37,.T.);
#249=EDGE_CURVE('',#201,#199,#38,.T.);
#250=EDGE_CURVE('',#200,#201,#128,.T.);
#251=EDGE_CURVE('',#187,#200,#129,.T.);
#252=EDGE_CURVE('',#188,#201,#130,.T.);
#253=ORIENTED_EDGE('',*,*,#202,.T.);
#254=ORIENTED_EDGE('',*,*,#203,.T.);
#255=ORIENTED_EDGE('',*,*,#204,.F.);
#256=ORIENTED_EDGE('',*,*,#205,.F.);
#257=ORIENTED_EDGE('',*,*,#206,.T.);
#258=ORIENTED_EDGE('',*,*,#205,.T.);
#259=ORIENTED_EDGE('',*,*,#207,.F.);
#260=ORIENTED_EDGE('',*,*,#208,.F.);
#261=ORIENTED_EDGE('',*,*,#209,.T.);
#262=ORIENTED_EDGE('',*,*,#208,.T.);
#263=ORIENTED_EDGE('',*,*,#210,.F.);
#264=ORIENTED_EDGE('',*,*,#203,.F.);
#265=ORIENTED_EDGE('',*,*,#211,.F.);
#266=ORIENTED_EDGE('',*,*,#212,.T.);
#267=ORIENTED_EDGE('',*,*,#213,.T.);
#268=ORIENTED_EDGE('',*,*,#212,.F.);
#269=ORIENTED_EDGE('',*,*,#214,.T.);
#270=ORIENTED_EDGE('',*,*,#215,.T.);
#271=ORIENTED_EDGE('',*,*,#216,.F.);
#272=ORIENTED_EDGE('',*,*,#217,.F.);
#273=ORIENTED_EDGE('',*,*,#218,.T.);
#274=ORIENTED_EDGE('',*,*,#217,.T.);
#275=ORIENTED_EDGE('',*,*,#219,.F.);
#276=ORIENTED_EDGE('',*,*,#220,.F.);
#277=ORIENTED_EDGE('',*,*,#221,.T.);
#278=ORIENTED_EDGE('',*,*,#220,.T.);
#279=ORIENTED_EDGE('',*,*,#222,.F.);
#280=ORIENTED_EDGE('',*,*,#215,.F.);
#281=ORIENTED_EDGE('',*,*,#223,.F.);
#282=ORIENTED_EDGE('',*,*,#224,.T.);
#283=ORIENTED_EDGE('',*,*,#225,.T.);
#284=ORIENTED_EDGE('',*,*,#224,.F.);
#285=ORIENTED_EDGE('',*,*,#226,.F.);
#286=ORIENTED_EDGE('',*,*,#227,.T.);
#287=ORIENTED_EDGE('',*,*,#228,.T.);
#288=ORIENTED_EDGE('',*,*,#227,.F.);
#289=ORIENTED_EDGE('',*,*,#229,.T.);
#290=ORIENTED_EDGE('',*,*,#230,.T.);
#291=ORIENTED_EDGE('',*,*,#231,.F.);
#292=ORIENTED_EDGE('',*,*,#232,.F.);
#293=ORIENTED_EDGE('',*,*,#233,.T.);
#294=ORIENTED_EDGE('',*,*,#232,.T.);
#295=ORIENTED_EDGE('',*,*,#234,.F.);
#296=ORIENTED_EDGE('',*,*,#235,.F.);
#297=ORIENTED_EDGE('',*,*,#236,.T.);
#298=ORIENTED_EDGE('',*,*,#235,.T.);
#299=ORIENTED_EDGE('',*,*,#237,.F.);
#300=ORIENTED_EDGE('',*,*,#238,.F.);
#301=ORIENTED_EDGE('',*,*,#239,.T.);
#302=ORIENTED_EDGE('',*,*,#238,.T.);
#303=ORIENTED_EDGE('',*,*,#240,.F.);
#304=ORIENTED_EDGE('',*,*,#241,.F.);
#305=ORIENTED_EDGE('',*,*,#242,.T.);
#306=ORIENTED_EDGE('',*,*,#241,.T.);
#307=ORIENTED_EDGE('',*,*,#243,.F.);
#308=ORIENTED_EDGE('',*,*,#244,.F.);
#309=ORIENTED_EDGE('',*,*,#245,.T.);
#310=ORIENTED_EDGE('',*,*,#244,.T.);
#311=ORIENTED_EDGE('',*,*,#246,.F.);
#312=ORIENTED_EDGE('',*,*,#247,.F.);
#313=ORIENTED_EDGE('',*,*,#248,.T.);
#314=ORIENTED_EDGE('',*,*,#247,.T.);
#315=ORIENTED_EDGE('',*,*,#249,.F.);
#316=ORIENTED_EDGE('',*,*,#250,.F.);
#317=ORIENTED_EDGE('',*,*,#251,.T.);
#318=ORIENTED_EDGE('',*,*,#250,.T.);
#319=ORIENTED_EDGE('',*,*,#252,.F.);
#320=ORIENTED_EDGE('',*,*,#230,.F.);
#321=ORIENTED_EDGE('',*,*,#252,.T.);
#322=ORIENTED_EDGE('',*,*,#249,.T.);
#323=ORIENTED_EDGE('',*,*,#246,.T.);
#324=ORIENTED_EDGE('',*,*,#243,.T.);
#325=ORIENTED_EDGE('',*,*,#240,.T.);
#326=ORIENTED_EDGE('',*,*,#237,.T.);
#327=ORIENTED_EDGE('',*,*,#234,.T.);
#328=ORIENTED_EDGE('',*,*,#231,.T.);
#329=ORIENTED_EDGE('',*,*,#226,.T.);
#330=ORIENTED_EDGE('',*,*,#223,.T.);
#331=ORIENTED_EDGE('',*,*,#222,.T.);
#332=ORIENTED_EDGE('',*,*,#219,.T.);
#333=ORIENTED_EDGE('',*,*,#216,.T.);
#334=ORIENTED_EDGE('',*,*,#211,.T.);
#335=ORIENTED_EDGE('',*,*,#210,.T.);
#336=ORIENTED_EDGE('',*,*,#207,.T.);
#337=ORIENTED_EDGE('',*,*,#204,.T.);
#338=ORIENTED_EDGE('',*,*,#251,.F.);
#339=ORIENTED_EDGE('',*,*,#229,.F.);
#340=ORIENTED_EDGE('',*,*,#233,.F.);
#341=ORIENTED_EDGE('',*,*,#236,.F.);
#342=ORIENTED_EDGE('',*,*,#239,.F.);
#343=ORIENTED_EDGE('',*,*,#242,.F.);
#344=ORIENTED_EDGE('',*,*,#245,.F.);
#345=ORIENTED_EDGE('',*,*,#248,.F.);
#346=ORIENTED_EDGE('',*,*,#228,.F.);
#347=ORIENTED_EDGE('',*,*,#225,.F.);
#348=ORIENTED_EDGE('',*,*,#221,.F.);
#349=ORIENTED_EDGE('',*,*,#214,.F.);
#350=ORIENTED_EDGE('',*,*,#218,.F.);
#351=ORIENTED_EDGE('',*,*,#213,.F.);
#352=ORIENTED_EDGE('',*,*,#209,.F.);
#353=ORIENTED_EDGE('',*,*,#202,.F.);
#354=ORIENTED_EDGE('',*,*,#206,.F.);
#355=PLANE('',#400);
#356=PLANE('',#401);
#357=PLANE('',#402);
#358=PLANE('',#406);
#359=PLANE('',#407);
#360=PLANE('',#408);
#361=PLANE('',#418);
#362=PLANE('',#422);
#363=PLANE('',#426);
#364=PLANE('',#430);
#365=PLANE('',#431);
#366=PLANE('',#432);
#367=ADVANCED_FACE('',(#46),#355,.T.);
#368=ADVANCED_FACE('',(#47),#356,.T.);
#369=ADVANCED_FACE('',(#48),#357,.T.);
#370=ADVANCED_FACE('',(#49),#39,.F.);
#371=ADVANCED_FACE('',(#50),#358,.T.);
#372=ADVANCED_FACE('',(#51),#359,.T.);
#373=ADVANCED_FACE('',(#52),#360,.T.);
#374=ADVANCED_FACE('',(#53),#40,.F.);
#375=ADVANCED_FACE('',(#54),#41,.F.);
#376=ADVANCED_FACE('',(#55),#42,.T.);
#377=ADVANCED_FACE('',(#56),#361,.T.);
#378=ADVANCED_FACE('',(#57),#43,.T.);
#379=ADVANCED_FACE('',(#58),#362,.T.);
#380=ADVANCED_FACE('',(#59),#44,.T.);
#381=ADVANCED_FACE('',(#60),#363,.T.);
#382=ADVANCED_FACE('',(#61),#45,.T.);
#383=ADVANCED_FACE('',(#62),#364,.T.);
#384=ADVANCED_FACE('',(#63,#15,#16,#17,#18,#19),#365,.T.);
#385=ADVANCED_FACE('',(#64,#20,#21,#22,#23,#24),#366,.F.);
#386=CLOSED_SHELL('',(#367,#368,#369,#370,#371,#372,#373,#374,#375,#376,
#377,#378,#379,#380,#381,#382,#383,#384,#385));
#387=DERIVED_UNIT_ELEMENT(#389,1.);
#388=DERIVED_UNIT_ELEMENT(#648,-3.);
#389=(
MASS_UNIT()
NAMED_UNIT(*)
SI_UNIT(.KILO.,.GRAM.)
);
#390=DERIVED_UNIT((#387,#388));
#391=MEASURE_REPRESENTATION_ITEM('density measure',
POSITIVE_RATIO_MEASURE(7850.),#390);
#392=PROPERTY_DEFINITION_REPRESENTATION(#397,#394);
#393=PROPERTY_DEFINITION_REPRESENTATION(#398,#395);
#394=REPRESENTATION('material name',(#396),#645);
#395=REPRESENTATION('density',(#391),#645);
#396=DESCRIPTIVE_REPRESENTATION_ITEM('Steel','Steel');
#397=PROPERTY_DEFINITION('material property','material name',#655);
#398=PROPERTY_DEFINITION('material property','density of part',#655);
#399=AXIS2_PLACEMENT_3D('',#538,#433,#434);
#400=AXIS2_PLACEMENT_3D('',#539,#435,#436);
#401=AXIS2_PLACEMENT_3D('',#548,#441,#442);
#402=AXIS2_PLACEMENT_3D('',#554,#446,#447);
#403=AXIS2_PLACEMENT_3D('',#557,#450,#451);
#404=AXIS2_PLACEMENT_3D('',#559,#452,#453);
#405=AXIS2_PLACEMENT_3D('',#562,#455,#456);
#406=AXIS2_PLACEMENT_3D('',#563,#457,#458);
#407=AXIS2_PLACEMENT_3D('',#572,#463,#464);
#408=AXIS2_PLACEMENT_3D('',#578,#468,#469);
#409=AXIS2_PLACEMENT_3D('',#581,#472,#473);
#410=AXIS2_PLACEMENT_3D('',#583,#474,#475);
#411=AXIS2_PLACEMENT_3D('',#586,#477,#478);
#412=AXIS2_PLACEMENT_3D('',#587,#479,#480);
#413=AXIS2_PLACEMENT_3D('',#589,#481,#482);
#414=AXIS2_PLACEMENT_3D('',#592,#484,#485);
#415=AXIS2_PLACEMENT_3D('',#593,#486,#487);
#416=AXIS2_PLACEMENT_3D('',#596,#488,#489);
#417=AXIS2_PLACEMENT_3D('',#600,#491,#492);
#418=AXIS2_PLACEMENT_3D('',#602,#494,#495);
#419=AXIS2_PLACEMENT_3D('',#608,#499,#500);
#420=AXIS2_PLACEMENT_3D('',#610,#501,#502);
#421=AXIS2_PLACEMENT_3D('',#612,#503,#504);
#422=AXIS2_PLACEMENT_3D('',#614,#506,#507);
#423=AXIS2_PLACEMENT_3D('',#620,#511,#512);
#424=AXIS2_PLACEMENT_3D('',#622,#513,#514);
#425=AXIS2_PLACEMENT_3D('',#624,#515,#516);
#426=AXIS2_PLACEMENT_3D('',#626,#518,#519);
#427=AXIS2_PLACEMENT_3D('',#632,#523,#524);
#428=AXIS2_PLACEMENT_3D('',#634,#525,#526);
#429=AXIS2_PLACEMENT_3D('',#636,#527,#528);
#430=AXIS2_PLACEMENT_3D('',#638,#530,#531);
#431=AXIS2_PLACEMENT_3D('',#641,#534,#535);
#432=AXIS2_PLACEMENT_3D('',#642,#536,#537);
#433=DIRECTION('axis',(0.,0.,1.));
#434=DIRECTION('refdir',(1.,0.,0.));
#435=DIRECTION('center_axis',(-0.999999937717442,0.000352937831528573,0.));
#436=DIRECTION('ref_axis',(0.000352937831528573,0.999999937717442,0.));
#437=DIRECTION('',(0.000352937831528573,0.999999937717442,0.));
#438=DIRECTION('',(0.,0.,-1.));
#439=DIRECTION('',(0.000352937831528573,0.999999937717442,0.));
#440=DIRECTION('',(0.,0.,-1.));
#441=DIRECTION('center_axis',(1.,-6.90811381482152E-15,0.));
#442=DIRECTION('ref_axis',(-6.90811381482152E-15,-1.,0.));
#443=DIRECTION('',(-6.90811381482152E-15,-1.,0.));
#444=DIRECTION('',(-6.90811381482152E-15,-1.,0.));
#445=DIRECTION('',(0.,0.,-1.));
#446=DIRECTION('center_axis',(-0.000352937831525885,-0.999999937717442,
0.));
#447=DIRECTION('ref_axis',(-0.999999937717442,0.000352937831525885,0.));
#448=DIRECTION('',(-0.999999937717442,0.000352937831525885,0.));
#449=DIRECTION('',(-0.999999937717442,0.000352937831525885,0.));
#450=DIRECTION('center_axis',(0.,0.,-1.));
#451=DIRECTION('ref_axis',(1.,0.,0.));
#452=DIRECTION('center_axis',(0.,0.,1.));
#453=DIRECTION('ref_axis',(1.,0.,0.));
#454=DIRECTION('',(0.,0.,1.));
#455=DIRECTION('center_axis',(0.,0.,1.));
#456=DIRECTION('ref_axis',(1.,0.,0.));
#457=DIRECTION('center_axis',(0.707106781187278,0.707106781185817,0.));
#458=DIRECTION('ref_axis',(0.707106781185817,-0.707106781187278,0.));
#459=DIRECTION('',(0.707106781185817,-0.707106781187278,0.));
#460=DIRECTION('',(0.,0.,-1.));
#461=DIRECTION('',(0.707106781185817,-0.707106781187278,0.));
#462=DIRECTION('',(0.,0.,-1.));
#463=DIRECTION('center_axis',(0.,-1.,0.));
#464=DIRECTION('ref_axis',(-1.,0.,0.));
#465=DIRECTION('',(-1.,0.,0.));
#466=DIRECTION('',(-1.,0.,0.));
#467=DIRECTION('',(0.,0.,-1.));
#468=DIRECTION('center_axis',(-0.999999937717442,0.000352937831526071,0.));
#469=DIRECTION('ref_axis',(0.000352937831526071,0.999999937717442,0.));
#470=DIRECTION('',(0.000352937831526071,0.999999937717442,0.));
#471=DIRECTION('',(0.000352937831526071,0.999999937717442,0.));
#472=DIRECTION('center_axis',(0.,0.,-1.));
#473=DIRECTION('ref_axis',(1.,0.,0.));
#474=DIRECTION('center_axis',(0.,0.,1.));
#475=DIRECTION('ref_axis',(1.,0.,0.));
#476=DIRECTION('',(0.,0.,1.));
#477=DIRECTION('center_axis',(0.,0.,1.));
#478=DIRECTION('ref_axis',(1.,0.,0.));
#479=DIRECTION('center_axis',(0.,0.,-1.));
#480=DIRECTION('ref_axis',(1.,0.,0.));
#481=DIRECTION('center_axis',(0.,0.,1.));
#482=DIRECTION('ref_axis',(1.,0.,0.));
#483=DIRECTION('',(0.,0.,1.));
#484=DIRECTION('center_axis',(0.,0.,1.));
#485=DIRECTION('ref_axis',(1.,0.,0.));
#486=DIRECTION('center_axis',(0.,0.,-1.));
#487=DIRECTION('ref_axis',(0.,1.,0.));
#488=DIRECTION('center_axis',(0.,0.,-1.));
#489=DIRECTION('ref_axis',(0.,1.,0.));
#490=DIRECTION('',(0.,0.,-1.));
#491=DIRECTION('center_axis',(0.,0.,-1.));
#492=DIRECTION('ref_axis',(0.,1.,0.));
#493=DIRECTION('',(0.,0.,-1.));
#494=DIRECTION('center_axis',(0.,1.,0.));
#495=DIRECTION('ref_axis',(1.,0.,0.));
#496=DIRECTION('',(1.,0.,0.));
#497=DIRECTION('',(1.,0.,0.));
#498=DIRECTION('',(0.,0.,-1.));
#499=DIRECTION('center_axis',(0.,0.,-1.));
#500=DIRECTION('ref_axis',(-0.999999937717442,0.00035293783152479,0.));
#501=DIRECTION('center_axis',(0.,0.,-1.));
#502=DIRECTION('ref_axis',(-0.999999937717442,0.00035293783152479,0.));
#503=DIRECTION('center_axis',(0.,0.,-1.));
#504=DIRECTION('ref_axis',(-0.999999937717442,0.00035293783152479,0.));
#505=DIRECTION('',(0.,0.,-1.));
#506=DIRECTION('center_axis',(-0.999999937717442,0.000352937831525552,0.));
#507=DIRECTION('ref_axis',(0.000352937831525552,0.999999937717442,0.));
#508=DIRECTION('',(0.000352937831525552,0.999999937717442,0.));
#509=DIRECTION('',(0.000352937831525552,0.999999937717442,0.));
#510=DIRECTION('',(0.,0.,-1.));
#511=DIRECTION('center_axis',(0.,0.,-1.));
#512=DIRECTION('ref_axis',(-0.000352937831524792,-0.999999937717442,0.));
#513=DIRECTION('center_axis',(0.,0.,-1.));
#514=DIRECTION('ref_axis',(-0.000352937831524792,-0.999999937717442,0.));
#515=DIRECTION('center_axis',(0.,0.,-1.));
#516=DIRECTION('ref_axis',(-0.000352937831524792,-0.999999937717442,0.));
#517=DIRECTION('',(0.,0.,-1.));
#518=DIRECTION('center_axis',(-0.00035293783152557,-0.999999937717442,0.));
#519=DIRECTION('ref_axis',(-0.999999937717442,0.00035293783152557,0.));
#520=DIRECTION('',(-0.999999937717442,0.00035293783152557,0.));
#521=DIRECTION('',(-0.999999937717442,0.00035293783152557,0.));
#522=DIRECTION('',(0.,0.,-1.));
#523=DIRECTION('center_axis',(0.,0.,-1.));
#524=DIRECTION('ref_axis',(1.,0.,0.));
#525=DIRECTION('center_axis',(0.,0.,-1.));
#526=DIRECTION('ref_axis',(1.,0.,0.));
#527=DIRECTION('center_axis',(0.,0.,-1.));
#528=DIRECTION('ref_axis',(1.,0.,0.));
#529=DIRECTION('',(0.,0.,-1.));
#530=DIRECTION('center_axis',(1.,7.76928216675653E-17,0.));
#531=DIRECTION('ref_axis',(7.76928216675653E-17,-1.,0.));
#532=DIRECTION('',(7.76928216675653E-17,-1.,0.));
#533=DIRECTION('',(7.76928216675653E-17,-1.,0.));
#534=DIRECTION('center_axis',(0.,0.,-1.));
#535=DIRECTION('ref_axis',(1.,0.,0.));
#536=DIRECTION('center_axis',(0.,0.,-1.));
#537=DIRECTION('ref_axis',(1.,0.,0.));
#538=CARTESIAN_POINT('',(0.,0.,0.));
#539=CARTESIAN_POINT('Origin',(-1.4129254501831,-66.9764379069812,-18.3));
#540=CARTESIAN_POINT('',(-1.4129254501831,-66.9764379069812,-18.3));
#541=CARTESIAN_POINT('',(-1.41284036769323,-66.7353685826858,-18.3));
#542=CARTESIAN_POINT('',(-1.4129254501831,-66.9764379069812,-18.3));
#543=CARTESIAN_POINT('',(-1.41284036769323,-66.7353685826858,-23.3));
#544=CARTESIAN_POINT('',(-1.41284036769323,-66.7353685826858,-18.3));
#545=CARTESIAN_POINT('',(-1.4129254501831,-66.9764379069812,-23.3));
#546=CARTESIAN_POINT('',(-1.4129254501831,-66.9764379069812,-23.3));
#547=CARTESIAN_POINT('',(-1.4129254501831,-66.9764379069812,-18.3));
#548=CARTESIAN_POINT('Origin',(-1.4129254501831,-66.735368552657,-18.3));
#549=CARTESIAN_POINT('',(-1.4129254501831,-66.735368552657,-18.3));
#550=CARTESIAN_POINT('',(-1.4129254501831,-66.735368552657,-18.3));
#551=CARTESIAN_POINT('',(-1.4129254501831,-66.735368552657,-23.3));
#552=CARTESIAN_POINT('',(-1.4129254501831,-66.735368552657,-23.3));
#553=CARTESIAN_POINT('',(-1.4129254501831,-66.735368552657,-18.3));
#554=CARTESIAN_POINT('Origin',(-1.41284036769323,-66.7353685826858,-18.3));
#555=CARTESIAN_POINT('',(-44.7885477065664,-66.7200596536432,-18.3));
#556=CARTESIAN_POINT('',(-44.7885477065664,-66.7200596536432,-23.3));
#557=CARTESIAN_POINT('Origin',(-40.2,38.,-18.3));
#558=CARTESIAN_POINT('',(-41.6,38.,-23.3));
#559=CARTESIAN_POINT('Origin',(-40.2,38.,-23.3));
#560=CARTESIAN_POINT('',(-41.6,38.,-18.3));
#561=CARTESIAN_POINT('',(-41.6,38.,-18.3));
#562=CARTESIAN_POINT('Origin',(-40.2,38.,-18.3));
#563=CARTESIAN_POINT('Origin',(-47.7875474755004,-51.7,-18.3));
#564=CARTESIAN_POINT('',(-47.7875474755004,-51.7,-18.3));
#565=CARTESIAN_POINT('',(-47.7832482631552,-51.7042992123452,-18.3));
#566=CARTESIAN_POINT('',(-47.7875474755004,-51.7,-18.3));
#567=CARTESIAN_POINT('',(-47.7832482631552,-51.7042992123452,-23.3));
#568=CARTESIAN_POINT('',(-47.7832482631552,-51.7042992123452,-18.3));
#569=CARTESIAN_POINT('',(-47.7875474755004,-51.7,-23.3));
#570=CARTESIAN_POINT('',(-47.7875474755004,-51.7,-23.3));
#571=CARTESIAN_POINT('',(-47.7875474755004,-51.7,-18.3));
#572=CARTESIAN_POINT('Origin',(-47.7832467458004,-51.7,-18.3));
#573=CARTESIAN_POINT('',(-47.7832467458004,-51.7,-18.3));
#574=CARTESIAN_POINT('',(-47.7832467458004,-51.7,-18.3));
#575=CARTESIAN_POINT('',(-47.7832467458004,-51.7,-23.3));
#576=CARTESIAN_POINT('',(-47.7832467458004,-51.7,-23.3));
#577=CARTESIAN_POINT('',(-47.7832467458004,-51.7,-18.3));
#578=CARTESIAN_POINT('Origin',(-47.7832482631552,-51.7042992123452,-18.3));
#579=CARTESIAN_POINT('',(-47.7499996263046,42.5010588134946,-18.3));
#580=CARTESIAN_POINT('',(-47.7499996263046,42.5010588134946,-23.3));
#581=CARTESIAN_POINT('Origin',(37.3,38.,-18.3));
#582=CARTESIAN_POINT('',(35.9,38.,-23.3));
#583=CARTESIAN_POINT('Origin',(37.3,38.,-23.3));
#584=CARTESIAN_POINT('',(35.9,38.,-18.3));
#585=CARTESIAN_POINT('',(35.9,38.,-18.3));
#586=CARTESIAN_POINT('Origin',(37.3,38.,-18.3));
#587=CARTESIAN_POINT('Origin',(37.3,4.33615522598524,-18.3));
#588=CARTESIAN_POINT('',(35.9,4.33615522598524,-23.3));
#589=CARTESIAN_POINT('Origin',(37.3,4.33615522598524,-23.3));
#590=CARTESIAN_POINT('',(35.9,4.33615522598524,-18.3));
#591=CARTESIAN_POINT('',(35.9,4.33615522598524,-18.3));
#592=CARTESIAN_POINT('Origin',(37.3,4.33615522598524,-18.3));
#593=CARTESIAN_POINT('Origin',(43.8,46.4679123592767,-18.3));
#594=CARTESIAN_POINT('',(43.8,50.4679123592767,-18.3));
#595=CARTESIAN_POINT('',(47.8,46.4679123592767,-18.3));
#596=CARTESIAN_POINT('Origin',(43.8,46.4679123592767,-18.3));
#597=CARTESIAN_POINT('',(47.8,46.4679123592767,-23.3));
#598=CARTESIAN_POINT('',(47.8,46.4679123592767,-18.3));
#599=CARTESIAN_POINT('',(43.8,50.4679123592767,-23.3));
#600=CARTESIAN_POINT('Origin',(43.8,46.4679123592767,-23.3));
#601=CARTESIAN_POINT('',(43.8,50.4679123592767,-18.3));
#602=CARTESIAN_POINT('Origin',(-48.7485996358116,50.4679123592767,-18.3));
#603=CARTESIAN_POINT('',(-48.7485996358116,50.4679123592767,-18.3));
#604=CARTESIAN_POINT('',(-48.7485996358116,50.4679123592767,-18.3));
#605=CARTESIAN_POINT('',(-48.7485996358116,50.4679123592767,-23.3));
#606=CARTESIAN_POINT('',(-48.7485996358116,50.4679123592767,-23.3));
#607=CARTESIAN_POINT('',(-48.7485996358116,50.4679123592767,-18.3));
#608=CARTESIAN_POINT('Origin',(-48.7485996358116,46.4679123592767,-18.3));
#609=CARTESIAN_POINT('',(-52.7485993866813,46.4693241106028,-18.3));
#610=CARTESIAN_POINT('Origin',(-48.7485996358116,46.4679123592767,-18.3));
#611=CARTESIAN_POINT('',(-52.7485993866813,46.4693241106028,-23.3));
#612=CARTESIAN_POINT('Origin',(-48.7485996358116,46.4679123592767,-23.3));
#613=CARTESIAN_POINT('',(-52.7485993866813,46.4693241106028,-18.3));
#614=CARTESIAN_POINT('Origin',(-52.7889354399206,-67.8172360824802,-18.3));
#615=CARTESIAN_POINT('',(-52.7889354399206,-67.8172360824802,-18.3));
#616=CARTESIAN_POINT('',(-52.7889354399206,-67.8172360824802,-18.3));
#617=CARTESIAN_POINT('',(-52.7889354399206,-67.8172360824802,-23.3));
#618=CARTESIAN_POINT('',(-52.7889354399206,-67.8172360824802,-23.3));
#619=CARTESIAN_POINT('',(-52.7889354399206,-67.8172360824802,-18.3));
#620=CARTESIAN_POINT('Origin',(-48.7889356890509,-67.8186478338063,-18.3));
#621=CARTESIAN_POINT('',(-48.790347440377,-71.8186475846761,-18.3));
#622=CARTESIAN_POINT('Origin',(-48.7889356890509,-67.8186478338063,-18.3));
#623=CARTESIAN_POINT('',(-48.7903474403769,-71.8186475846761,-23.3));
#624=CARTESIAN_POINT('Origin',(-48.7889356890509,-67.8186478338063,-23.3));
#625=CARTESIAN_POINT('',(-48.790347440377,-71.8186475846761,-18.3));
#626=CARTESIAN_POINT('Origin',(43.7985882486739,-71.8513257248967,-18.3));
#627=CARTESIAN_POINT('',(43.7985882486739,-71.8513257248967,-18.3));
#628=CARTESIAN_POINT('',(43.7985882486739,-71.8513257248967,-18.3));
#629=CARTESIAN_POINT('',(43.7985882486739,-71.8513257248967,-23.3));
#630=CARTESIAN_POINT('',(43.7985882486739,-71.8513257248967,-23.3));
#631=CARTESIAN_POINT('',(43.7985882486739,-71.8513257248967,-18.3));
#632=CARTESIAN_POINT('Origin',(43.8,-67.8513259740269,-18.3));
#633=CARTESIAN_POINT('',(47.8,-67.851325974027,-18.3));
#634=CARTESIAN_POINT('Origin',(43.8,-67.8513259740269,-18.3));
#635=CARTESIAN_POINT('',(47.8,-67.851325974027,-23.3));
#636=CARTESIAN_POINT('Origin',(43.8,-67.8513259740269,-23.3));
#637=CARTESIAN_POINT('',(47.8,-67.851325974027,-18.3));
#638=CARTESIAN_POINT('Origin',(47.8,46.4679123592767,-18.3));
#639=CARTESIAN_POINT('',(47.8,46.4679123592767,-18.3));
#640=CARTESIAN_POINT('',(47.8,46.4679123592767,-23.3));
#641=CARTESIAN_POINT('Origin',(-2.49446784452543,-10.6917068073751,-23.3));
#642=CARTESIAN_POINT('Origin',(-2.49446784452543,-10.6917068073751,-18.3));
#643=UNCERTAINTY_MEASURE_WITH_UNIT(LENGTH_MEASURE(0.01),#647,
'DISTANCE_ACCURACY_VALUE',
'Maximum model space distance between geometric entities at asserted c
onnectivities');
#644=UNCERTAINTY_MEASURE_WITH_UNIT(LENGTH_MEASURE(0.01),#647,
'DISTANCE_ACCURACY_VALUE',
'Maximum model space distance between geometric entities at asserted c
onnectivities');
#645=(
GEOMETRIC_REPRESENTATION_CONTEXT(3)
GLOBAL_UNCERTAINTY_ASSIGNED_CONTEXT((#643))
GLOBAL_UNIT_ASSIGNED_CONTEXT((#647,#649,#650))
REPRESENTATION_CONTEXT('','3D')
);
#646=(
GEOMETRIC_REPRESENTATION_CONTEXT(3)
GLOBAL_UNCERTAINTY_ASSIGNED_CONTEXT((#644))
GLOBAL_UNIT_ASSIGNED_CONTEXT((#647,#649,#650))
REPRESENTATION_CONTEXT('','3D')
);
#647=(
LENGTH_UNIT()
NAMED_UNIT(*)
SI_UNIT(.MILLI.,.METRE.)
);
#648=(
LENGTH_UNIT()
NAMED_UNIT(*)
SI_UNIT($,.METRE.)
);
#649=(
NAMED_UNIT(*)
PLANE_ANGLE_UNIT()
SI_UNIT($,.RADIAN.)
);
#650=(
NAMED_UNIT(*)
SI_UNIT($,.STERADIAN.)
SOLID_ANGLE_UNIT()
);
#651=SHAPE_DEFINITION_REPRESENTATION(#652,#653);
#652=PRODUCT_DEFINITION_SHAPE('',$,#655);
#653=SHAPE_REPRESENTATION('',(#399),#645);
#654=PRODUCT_DEFINITION_CONTEXT('part definition',#659,'design');
#655=PRODUCT_DEFINITION('FusionComponent','FusionComponent',#656,#654);
#656=PRODUCT_DEFINITION_FORMATION('',$,#661);
#657=PRODUCT_RELATED_PRODUCT_CATEGORY('FusionComponent',
'FusionComponent',(#661));
#658=APPLICATION_PROTOCOL_DEFINITION('international standard',
'automotive_design',2009,#659);
#659=APPLICATION_CONTEXT(
'Core Data for Automotive Mechanical Design Process');
#660=PRODUCT_CONTEXT('part definition',#659,'mechanical');
#661=PRODUCT('FusionComponent','FusionComponent',$,(#660));
#662=PRESENTATION_STYLE_ASSIGNMENT((#664));
#663=PRESENTATION_STYLE_ASSIGNMENT((#665));
#664=SURFACE_STYLE_USAGE(.BOTH.,#666);
#665=SURFACE_STYLE_USAGE(.BOTH.,#667);
#666=SURFACE_SIDE_STYLE('',(#668));
#667=SURFACE_SIDE_STYLE('',(#669));
#668=SURFACE_STYLE_FILL_AREA(#670);
#669=SURFACE_STYLE_FILL_AREA(#671);
#670=FILL_AREA_STYLE('Steel - Satin',(#672));
#671=FILL_AREA_STYLE(
'EPX 150 - Air Baked (with Carbon M2 M3 L1 3D Printers)',(#673));
#672=FILL_AREA_STYLE_COLOUR('Steel - Satin',#674);
#673=FILL_AREA_STYLE_COLOUR(
'EPX 150 - Air Baked (with Carbon M2 M3 L1 3D Printers)',#675);
#674=COLOUR_RGB('Steel - Satin',0.627450980392157,0.627450980392157,0.627450980392157);
#675=COLOUR_RGB(
'EPX 150 - Air Baked (with Carbon M2 M3 L1 3D Printers)',0.247058823529412,
0.247058823529412,0.247058823529412);
ENDSEC;
END-ISO-10303-21;
